<?xml version="1.0" encoding="UTF-8" standalone="no"?>
<svg xmlns:rdf="http://www.w3.org/1999/02/22-rdf-syntax-ns#" xmlns="http://www.w3.org/2000/svg" height="28.222mm" width="15.003mm" version="1.1" xmlns:cc="http://creativecommons.org/ns#" xmlns:dc="http://purl.org/dc/elements/1.1/" viewBox="0 0 53.161819 100.00004">
 <g transform="translate(.64680 -955.16)">
  <path d="m29.492 955.26-7.5097 0.19756-1.5812 1.7788 0.39511 0.59266 0.19794 12.648-19.565 10.672v2.3714l-1.9763 2.3714 0.19755 4.9408 1.1857 2.3718-0.19755 34.387-0.98815 1.3837-0.19755 4.7428 1.5812 2.7669v3.3596l-1.3836 1.3836 0.59304 6.7195 2.1739 1.3833 1.7787 2.5694 3.3596 1.5808 8.6958 1.5812h17.589l9.0909-1.1861 5.9289-1.9759 0.39511-2.9645 2.5693-1.3836v-7.1147l-1.3836-2.1738v-2.3718l1.9763-1.3833v-6.324l-1.7788-0.5931 0.19794-35.178 1.3833-1.5812v-5.3359l-1.9763-2.1739 0.19755-1.7788-19.368-10.672v-13.439l-1.5812-2.1739zm1.4681 3.6542-0.09859 11.86 15.626 8.697h-41.31l16.013-8.7959-0.28124-11.662 10.051-0.099z" fill-rule="evenodd" stroke="#000" stroke-width=".19564px" fill="#00629e"/>
  <text style="word-spacing:0px;letter-spacing:0px;text-anchor:middle;text-align:center" xml:space="preserve" font-size="7.8257px" y="1005.3586" x="26.450153" font-family="sans-serif" line-height="125%" fill="#ffffff"><tspan x="26.450153" y="1005.3586">GDC</tspan><tspan x="26.450153" y="1015.1407">water</tspan></text>
 </g>
</svg>
